<svg width="15" height="18" viewBox="0 0 15 18" fill="none" xmlns="http://www.w3.org/2000/svg">
<path d="M7.49967 8.99984C6.58301 8.99984 5.83301 8.24984 5.83301 7.33317C5.83301 6.4165 6.58301 5.6665 7.49967 5.6665C8.41634 5.6665 9.16634 6.4165 9.16634 7.33317C9.16634 8.24984 8.41634 8.99984 7.49967 8.99984ZM12.4997 7.49984C12.4997 4.47484 10.2913 2.33317 7.49967 2.33317C4.70801 2.33317 2.49967 4.47484 2.49967 7.49984C2.49967 9.44984 4.12467 12.0332 7.49967 15.1165C10.8747 12.0332 12.4997 9.44984 12.4997 7.49984ZM7.49967 0.666504C10.9997 0.666504 14.1663 3.34984 14.1663 7.49984C14.1663 10.2665 11.9413 13.5415 7.49967 17.3332C3.05801 13.5415 0.833008 10.2665 0.833008 7.49984C0.833008 3.34984 3.99967 0.666504 7.49967 0.666504Z" fill="white"/>
</svg>
