<svg width="15" height="16" viewBox="0 0 15 16" fill="none" xmlns="http://www.w3.org/2000/svg">
<path d="M13.5245 10.7166L11.4079 10.475C10.8995 10.4166 10.3995 10.5916 10.0412 10.95L8.50788 12.4833C6.14955 11.2833 4.21621 9.3583 3.01621 6.99163L4.55788 5.44997C4.91621 5.09163 5.09121 4.59163 5.03288 4.0833L4.79121 1.9833C4.69121 1.14163 3.98288 0.508301 3.13288 0.508301H1.69121C0.749546 0.508301 -0.0337877 1.29163 0.0245456 2.2333C0.466212 9.34997 6.15788 15.0333 13.2662 15.475C14.2079 15.5333 14.9912 14.75 14.9912 13.8083V12.3666C14.9995 11.525 14.3662 10.8166 13.5245 10.7166Z" fill="white"/>
</svg>
