<svg width="17" height="16" viewBox="0 0 17 16" fill="none" xmlns="http://www.w3.org/2000/svg">
<path d="M8.49785 3.87228C6.22636 3.87228 4.39315 5.69473 4.39315 7.95288C4.39315 10.211 6.22636 12.0335 8.49785 12.0335C10.7693 12.0335 12.6025 10.211 12.6025 7.95288C12.6025 5.69473 10.7693 3.87228 8.49785 3.87228ZM8.49785 10.605C7.02888 10.605 5.8301 9.41322 5.8301 7.95288C5.8301 6.49254 7.02888 5.30079 8.49785 5.30079C9.96681 5.30079 11.1656 6.49254 11.1656 7.95288C11.1656 9.41322 9.96681 10.605 8.49785 10.605ZM12.7707 2.75415C12.2403 2.75415 11.812 3.17992 11.812 3.70715C11.812 4.23439 12.2403 4.66015 12.7707 4.66015C13.301 4.66015 13.7293 4.23637 13.7293 3.70715C13.7294 3.58196 13.7048 3.45796 13.6566 3.34227C13.6085 3.22657 13.5379 3.12145 13.4489 3.03293C13.3598 2.9444 13.2541 2.87421 13.1377 2.82637C13.0213 2.77853 12.8966 2.75399 12.7707 2.75415ZM16.4991 7.95288C16.4991 6.85464 16.5091 5.76635 16.4471 4.6701C16.385 3.39678 16.0928 2.26671 15.1562 1.33559C14.2176 0.402484 13.0829 0.113997 11.802 0.0523204C10.6973 -0.00935607 9.60257 0.000591784 8.49985 0.000591784C7.39512 0.000591784 6.30041 -0.00935607 5.19768 0.0523204C3.91684 0.113997 2.78009 0.404473 1.84348 1.33559C0.904861 2.2687 0.61467 3.39678 0.552629 4.6701C0.490589 5.76834 0.500595 6.85663 0.500595 7.95288C0.500595 9.04913 0.490589 10.1394 0.552629 11.2357C0.61467 12.509 0.906862 13.6391 1.84348 14.5702C2.78209 15.5033 3.91684 15.7918 5.19768 15.8534C6.30241 15.9151 7.39713 15.9052 8.49985 15.9052C9.60458 15.9052 10.6993 15.9151 11.802 15.8534C13.0829 15.7918 14.2196 15.5013 15.1562 14.5702C16.0948 13.6371 16.385 12.509 16.4471 11.2357C16.5111 10.1394 16.4991 9.05112 16.4991 7.95288ZM14.738 12.6443C14.5919 13.0064 14.4157 13.277 14.1336 13.5555C13.8514 13.836 13.5812 14.0111 13.217 14.1563C12.1643 14.5722 9.66462 14.4787 8.49785 14.4787C7.33108 14.4787 4.82944 14.5722 3.77675 14.1583C3.41251 14.0131 3.14033 13.838 2.86015 13.5575C2.57796 13.277 2.40184 13.0084 2.25575 12.6463C1.83948 11.5978 1.93354 9.1128 1.93354 7.95288C1.93354 6.79296 1.83948 4.30601 2.25575 3.2595C2.40184 2.8974 2.57796 2.62682 2.86015 2.34828C3.14233 2.06974 3.41251 1.89267 3.77675 1.74743C4.82944 1.3336 7.33108 1.42711 8.49785 1.42711C9.66462 1.42711 12.1663 1.3336 13.219 1.74743C13.5832 1.89267 13.8554 2.06775 14.1356 2.34828C14.4177 2.62881 14.5939 2.8974 14.74 3.2595C15.1562 4.30601 15.0622 6.79296 15.0622 7.95288C15.0622 9.1128 15.1562 11.5978 14.738 12.6443Z" fill="white"/>
</svg>
