<svg width="17" height="16" viewBox="0 0 17 16" fill="none" xmlns="http://www.w3.org/2000/svg">
<path fill-rule="evenodd" clip-rule="evenodd" d="M0.5 1.33673C0.5 0.982207 0.640834 0.642205 0.891519 0.39152C1.1422 0.140835 1.48221 1.78205e-06 1.83673 1.78205e-06H15.1618C15.3375 -0.000285165 15.5115 0.0340839 15.6739 0.101141C15.8363 0.168198 15.9839 0.266627 16.1082 0.390792C16.2325 0.514956 16.3311 0.662419 16.3983 0.824736C16.4655 0.987054 16.5001 1.16104 16.5 1.33673V14.6618C16.5002 14.8375 16.4657 15.0116 16.3986 15.174C16.3315 15.3364 16.233 15.4839 16.1087 15.6082C15.9845 15.7325 15.837 15.8311 15.6746 15.8983C15.5123 15.9655 15.3383 16.0001 15.1625 16H1.83673C1.66112 16 1.48724 15.9654 1.32502 15.8982C1.16279 15.831 1.0154 15.7324 0.891261 15.6082C0.767125 15.484 0.668678 15.3366 0.601544 15.1743C0.53441 15.012 0.499905 14.8381 0.5 14.6625V1.33673ZM6.83309 6.10037H8.99964V7.18836C9.31236 6.56291 10.1124 6 11.3145 6C13.6193 6 14.1655 7.24582 14.1655 9.53164V13.7658H11.8331V10.0524C11.8331 8.75055 11.5204 8.016 10.7262 8.016C9.62436 8.016 9.16618 8.808 9.16618 10.0524V13.7658H6.83309V6.10037ZM2.83309 13.6662H5.16618V6H2.83309V13.6655V13.6662ZM5.5 3.49964C5.5044 3.6994 5.46885 3.89803 5.39545 4.08387C5.32204 4.2697 5.21226 4.43901 5.07253 4.58184C4.93281 4.72468 4.76596 4.83816 4.58179 4.91564C4.39761 4.99312 4.19981 5.03303 4 5.03303C3.80019 5.03303 3.60239 4.99312 3.41821 4.91564C3.23404 4.83816 3.06719 4.72468 2.92747 4.58184C2.78774 4.43901 2.67796 4.2697 2.60455 4.08387C2.53115 3.89803 2.4956 3.6994 2.5 3.49964C2.50863 3.10753 2.67046 2.7344 2.95083 2.46014C3.23119 2.18588 3.6078 2.03231 4 2.03231C4.3922 2.03231 4.76881 2.18588 5.04917 2.46014C5.32954 2.7344 5.49137 3.10753 5.5 3.49964V3.49964Z" fill="white"/>
</svg>
