<svg width="52" height="36" viewBox="0 0 52 36" fill="none" xmlns="http://www.w3.org/2000/svg">
<path d="M29.2958 22.0408C29.2958 18.2204 29.8817 14.9388 31.0535 12.1959C32.2254 9.3551 33.739 7.05306 35.5944 5.2898C37.4498 3.42857 39.5493 2.10612 41.893 1.32245C44.3343 0.440816 46.7268 0 49.0704 0V5.14286C46.5315 5.14286 44.139 6.02449 41.893 7.78776C39.7446 9.45306 38.4751 11.7551 38.0845 14.6939C38.3775 14.5959 38.7192 14.498 39.1099 14.4C39.4028 14.302 39.7446 14.2041 40.1352 14.1061C40.6235 14.0082 41.1606 13.9592 41.7465 13.9592C44.6761 13.9592 47.1174 15.0857 49.0704 17.3388C51.0235 19.4939 52 22.0408 52 24.9796C52 27.9184 50.9746 30.5143 48.9239 32.7673C46.9709 34.9224 44.3343 36 41.0141 36C37.3033 36 34.4225 34.6286 32.3718 31.8857C30.3211 29.0449 29.2958 25.7633 29.2958 22.0408ZM0 22.0408C0 18.2204 0.585915 14.9388 1.75775 12.1959C2.92958 9.3551 4.44319 7.05306 6.29859 5.2898C8.15399 3.42857 10.2535 2.10612 12.5972 1.32245C15.0385 0.440816 17.431 0 19.7746 0V5.14286C17.2357 5.14286 14.8432 6.02449 12.5972 7.78776C10.4488 9.45306 9.17934 11.7551 8.78873 14.6939C9.08169 14.5959 9.42347 14.498 9.81408 14.4C10.107 14.302 10.4488 14.2041 10.8394 14.1061C11.3277 14.0082 11.8648 13.9592 12.4507 13.9592C15.3803 13.9592 17.8216 15.0857 19.7746 17.3388C21.7277 19.4939 22.7042 22.0408 22.7042 24.9796C22.7042 27.9184 21.6789 30.5143 19.6282 32.7673C17.6751 34.9224 15.0385 36 11.7183 36C8.00751 36 5.12676 34.6286 3.07606 31.8857C1.02535 29.0449 0 25.7633 0 22.0408Z" fill="#5551FF"/>
</svg>
